<?xml version="1.0" standalone="no"?>
<!DOCTYPE svg PUBLIC "-//W3C//DTD SVG 20010904//EN"
 "http://www.w3.org/TR/2001/REC-SVG-20010904/DTD/svg10.dtd">
<svg version="1.0" xmlns="http://www.w3.org/2000/svg"
 width="776.000000pt" height="776.000000pt" viewBox="0 0 776.000000 776.000000"
 preserveAspectRatio="xMidYMid meet">

<g transform="translate(0.000000,776.000000) scale(0.100000,-0.100000)"
fill="#000000" stroke="none">
<path d="M1469 5212 c-68 -44 -154 -144 -193 -225 -47 -99 -66 -179 -66 -284
0 -124 -2 -123 177 -123 216 0 307 26 400 114 48 44 103 130 91 141 -3 4 -39
11 -79 17 -142 19 -267 -28 -402 -153 -41 -38 -78 -69 -82 -69 -17 0 9 92 50
175 47 98 111 171 195 226 57 37 66 56 50 103 -9 27 -78 106 -93 106 -2 0 -23
-13 -48 -28z"/>
<path d="M715 5103 c20 -238 99 -336 353 -433 42 -17 78 -30 81 -30 6 0 -9
130 -21 180 -28 119 -114 238 -211 294 -48 28 -156 66 -187 66 -20 0 -21 -4
-15 -77z"/>
<path d="M774 4609 c-131 -22 -258 -88 -367 -189 -173 -160 -255 -372 -244
-625 8 -198 64 -349 183 -496 111 -139 320 -273 499 -321 116 -31 337 -31 450
0 328 89 579 361 642 697 17 89 14 296 -5 331 -6 11 -28 26 -50 32 -109 33
-155 141 -96 227 l25 38 -43 44 c-103 105 -224 153 -408 160 -120 4 -128 6
-205 43 -125 61 -253 81 -381 59z m0 -274 c3 -10 -16 -30 -57 -61 -130 -98
-189 -169 -261 -312 -39 -77 -59 -88 -64 -33 -13 132 104 332 231 396 59 29
141 35 151 10z"/>
<path d="M2044 4436 c-15 -11 -20 -30 -24 -93 l-5 -78 -67 -3 c-59 -3 -70 -6
-88 -29 -11 -14 -20 -36 -20 -48 0 -12 9 -34 20 -48 18 -23 29 -26 88 -29 l67
-3 5 -78 c4 -63 9 -82 24 -93 28 -20 59 -17 89 6 23 18 26 29 29 93 l3 72 67
5 c79 6 102 23 102 74 0 56 -25 75 -103 78 l-66 3 -3 70 c-2 55 -8 75 -24 92
-24 26 -65 30 -94 9z"/>
<path d="M4940 4077 c0 -57 -3 -106 -6 -109 -3 -4 -22 5 -41 18 -70 47 -167
26 -227 -49 -26 -32 -31 -49 -34 -107 -5 -88 9 -129 63 -179 64 -59 149 -67
208 -21 32 25 37 25 37 0 0 -17 7 -20 40 -20 l40 0 0 285 0 285 -40 0 -40 0 0
-103z m-47 -168 c53 -41 60 -142 13 -192 -45 -49 -107 -47 -157 3 -24 24 -29
37 -29 80 0 57 11 86 44 112 30 25 97 23 129 -3z"/>
<path d="M2675 4157 c-3 -7 -4 -131 -3 -277 l3 -265 45 0 45 0 3 98 3 97 72 0
c137 1 217 67 217 180 0 75 -35 129 -105 161 -50 23 -272 28 -280 6z m236 -83
c17 -8 37 -30 45 -50 12 -29 12 -39 0 -68 -19 -45 -61 -66 -131 -66 l-55 0 0
100 0 100 55 0 c31 0 69 -7 86 -16z"/>
<path d="M6320 3890 l0 -280 45 0 44 0 3 98 3 97 85 5 c97 7 136 23 176 75 53
69 38 189 -29 239 -51 37 -92 46 -213 46 l-114 0 0 -280z m233 189 c35 -18 57
-52 56 -89 0 -65 -47 -100 -136 -100 l-63 0 0 100 0 100 61 0 c33 0 70 -5 82
-11z"/>
<path d="M6760 3890 l0 -280 45 0 45 0 0 280 0 280 -45 0 -45 0 0 -280z"/>
<path d="M3205 3996 c-38 -17 -90 -72 -104 -109 -6 -16 -11 -52 -11 -80 1
-145 121 -236 262 -197 169 47 187 299 27 380 -45 23 -129 26 -174 6z m144
-82 c27 -19 51 -71 51 -110 0 -40 -30 -93 -61 -109 -36 -19 -63 -19 -99 0 -69
36 -81 153 -21 207 37 33 93 38 130 12z"/>
<path d="M3668 3991 c-31 -25 -38 -26 -38 -6 0 11 -11 15 -40 15 l-40 0 0
-195 0 -195 45 0 45 0 0 138 c0 132 1 140 23 160 33 31 80 29 106 -4 19 -24
21 -40 21 -160 l0 -134 45 0 45 0 0 140 c0 127 2 142 20 160 27 27 81 26 106
-1 16 -18 19 -40 22 -160 l4 -139 39 0 39 0 0 150 c0 164 -6 190 -56 229 -40
31 -123 29 -162 -4 -36 -30 -40 -31 -69 -3 -34 32 -119 37 -155 9z"/>
<path d="M4300 3999 c-69 -28 -120 -110 -120 -194 0 -70 17 -112 63 -152 103
-90 264 -59 318 62 48 105 -4 246 -104 284 -35 13 -123 13 -157 0z m138 -85
c50 -35 65 -108 36 -170 -28 -58 -88 -78 -144 -49 -69 36 -81 153 -21 207 36
32 93 38 129 12z"/>
<path d="M5210 3994 c-71 -31 -111 -95 -112 -179 -1 -73 17 -118 62 -159 159
-143 388 7 330 216 -31 110 -169 170 -280 122z m153 -84 c32 -25 51 -81 43
-125 -8 -43 -48 -91 -82 -99 -36 -9 -90 10 -114 41 -37 48 -21 164 27 192 31
18 98 13 126 -9z"/>
<path d="M5682 3985 c-36 -30 -42 -31 -42 -5 0 17 -7 20 -40 20 l-40 0 0 -195
0 -195 45 0 45 0 0 120 c0 161 14 190 95 190 28 0 33 4 39 31 11 55 9 59 -33
59 -27 0 -49 -8 -69 -25z"/>
<path d="M5952 3999 c-54 -16 -108 -78 -122 -142 -32 -140 58 -257 195 -257
99 0 173 59 195 154 18 81 -2 146 -62 202 -54 51 -126 66 -206 43z m151 -109
c49 -54 35 -165 -24 -195 -64 -34 -128 -9 -155 60 -22 58 -8 111 38 150 43 36
100 30 141 -15z"/>
<path d="M7400 3992 c-22 -10 -42 -32 -54 -55 -16 -33 -17 -45 -7 -78 14 -46
39 -65 117 -88 32 -9 62 -24 68 -34 16 -26 -5 -51 -45 -55 -28 -3 -39 2 -60
28 -26 31 -27 31 -63 16 -20 -8 -36 -20 -36 -26 0 -25 42 -69 80 -84 111 -44
220 10 220 111 0 58 -36 95 -112 118 -74 21 -96 38 -82 62 17 27 80 30 94 4
12 -24 28 -26 65 -9 32 14 32 28 -2 60 -52 50 -121 61 -183 30z"/>
<path d="M6930 3850 c0 -117 4 -158 15 -181 36 -69 145 -93 203 -44 31 26 42
24 42 -7 0 -14 8 -18 40 -18 l40 0 0 200 0 200 -45 0 -45 0 0 -135 c0 -131 -1
-137 -25 -160 -46 -47 -133 -23 -136 38 -1 12 -2 74 -3 137 l-1 115 -42 3 -43
3 0 -151z"/>
</g>
</svg>
